<mxfile host="app.diagrams.net" agent="Mozilla/5.0 (Windows NT 10.0; Win64; x64) AppleWebKit/537.36 (KHTML, like Gecko) Chrome/133.0.0.0 Safari/537.36 Edg/133.0.0.0" version="26.1.0">
  <diagram id="C5RBs43oDa-KdzZeNtuy" name="Page-1">
    <mxGraphModel dx="664" dy="893" grid="1" gridSize="10" guides="1" tooltips="1" connect="1" arrows="1" fold="1" page="1" pageScale="1" pageWidth="827" pageHeight="1169" math="0" shadow="0">
      <root>
        <mxCell id="WIyWlLk6GJQsqaUBKTNV-0" />
        <mxCell id="WIyWlLk6GJQsqaUBKTNV-1" parent="WIyWlLk6GJQsqaUBKTNV-0" />
        <mxCell id="hK3kiyrO_WpDA3cr3hv8-5" style="edgeStyle=orthogonalEdgeStyle;rounded=0;orthogonalLoop=1;jettySize=auto;html=1;" edge="1" parent="WIyWlLk6GJQsqaUBKTNV-1" source="hK3kiyrO_WpDA3cr3hv8-0" target="hK3kiyrO_WpDA3cr3hv8-4">
          <mxGeometry relative="1" as="geometry" />
        </mxCell>
        <mxCell id="hK3kiyrO_WpDA3cr3hv8-0" value="NewNode, Current, Data" style="shape=parallelogram;perimeter=parallelogramPerimeter;whiteSpace=wrap;html=1;fixedSize=1;" vertex="1" parent="WIyWlLk6GJQsqaUBKTNV-1">
          <mxGeometry x="160" y="160" width="160" height="40" as="geometry" />
        </mxCell>
        <mxCell id="hK3kiyrO_WpDA3cr3hv8-2" style="edgeStyle=orthogonalEdgeStyle;rounded=0;orthogonalLoop=1;jettySize=auto;html=1;entryX=0.5;entryY=0;entryDx=0;entryDy=0;" edge="1" parent="WIyWlLk6GJQsqaUBKTNV-1" source="hK3kiyrO_WpDA3cr3hv8-1" target="hK3kiyrO_WpDA3cr3hv8-0">
          <mxGeometry relative="1" as="geometry" />
        </mxCell>
        <mxCell id="hK3kiyrO_WpDA3cr3hv8-1" value="AddElement&lt;div&gt;Начало&lt;/div&gt;" style="strokeWidth=2;html=1;shape=mxgraph.flowchart.terminator;whiteSpace=wrap;" vertex="1" parent="WIyWlLk6GJQsqaUBKTNV-1">
          <mxGeometry x="160" y="80" width="160" height="40" as="geometry" />
        </mxCell>
        <mxCell id="hK3kiyrO_WpDA3cr3hv8-12" style="edgeStyle=orthogonalEdgeStyle;rounded=0;orthogonalLoop=1;jettySize=auto;html=1;entryX=0.5;entryY=0;entryDx=0;entryDy=0;" edge="1" parent="WIyWlLk6GJQsqaUBKTNV-1" source="hK3kiyrO_WpDA3cr3hv8-3" target="hK3kiyrO_WpDA3cr3hv8-7">
          <mxGeometry relative="1" as="geometry" />
        </mxCell>
        <mxCell id="hK3kiyrO_WpDA3cr3hv8-3" value="Nodes[NewNode].Data := Data" style="rounded=0;whiteSpace=wrap;html=1;" vertex="1" parent="WIyWlLk6GJQsqaUBKTNV-1">
          <mxGeometry x="160" y="320" width="160" height="40" as="geometry" />
        </mxCell>
        <mxCell id="hK3kiyrO_WpDA3cr3hv8-6" style="edgeStyle=orthogonalEdgeStyle;rounded=0;orthogonalLoop=1;jettySize=auto;html=1;entryX=0.5;entryY=0;entryDx=0;entryDy=0;" edge="1" parent="WIyWlLk6GJQsqaUBKTNV-1" source="hK3kiyrO_WpDA3cr3hv8-4" target="hK3kiyrO_WpDA3cr3hv8-3">
          <mxGeometry relative="1" as="geometry" />
        </mxCell>
        <mxCell id="hK3kiyrO_WpDA3cr3hv8-4" value="NewNode := AllocateNode" style="rounded=0;whiteSpace=wrap;html=1;" vertex="1" parent="WIyWlLk6GJQsqaUBKTNV-1">
          <mxGeometry x="160" y="240" width="160" height="40" as="geometry" />
        </mxCell>
        <mxCell id="hK3kiyrO_WpDA3cr3hv8-10" style="edgeStyle=orthogonalEdgeStyle;rounded=0;orthogonalLoop=1;jettySize=auto;html=1;entryX=0.5;entryY=0;entryDx=0;entryDy=0;" edge="1" parent="WIyWlLk6GJQsqaUBKTNV-1" source="hK3kiyrO_WpDA3cr3hv8-7" target="hK3kiyrO_WpDA3cr3hv8-9">
          <mxGeometry relative="1" as="geometry" />
        </mxCell>
        <mxCell id="hK3kiyrO_WpDA3cr3hv8-7" value="Head = -1" style="rhombus;whiteSpace=wrap;html=1;" vertex="1" parent="WIyWlLk6GJQsqaUBKTNV-1">
          <mxGeometry x="160" y="400" width="160" height="40" as="geometry" />
        </mxCell>
        <mxCell id="hK3kiyrO_WpDA3cr3hv8-27" style="edgeStyle=orthogonalEdgeStyle;rounded=0;orthogonalLoop=1;jettySize=auto;html=1;entryX=0.5;entryY=0;entryDx=0;entryDy=0;" edge="1" parent="WIyWlLk6GJQsqaUBKTNV-1" source="hK3kiyrO_WpDA3cr3hv8-8" target="hK3kiyrO_WpDA3cr3hv8-26">
          <mxGeometry relative="1" as="geometry" />
        </mxCell>
        <mxCell id="hK3kiyrO_WpDA3cr3hv8-8" value="Nodes[NewNode].Next := NewNode" style="rounded=0;whiteSpace=wrap;html=1;" vertex="1" parent="WIyWlLk6GJQsqaUBKTNV-1">
          <mxGeometry x="160" y="560" width="160" height="40" as="geometry" />
        </mxCell>
        <mxCell id="hK3kiyrO_WpDA3cr3hv8-11" style="edgeStyle=orthogonalEdgeStyle;rounded=0;orthogonalLoop=1;jettySize=auto;html=1;entryX=0.5;entryY=0;entryDx=0;entryDy=0;" edge="1" parent="WIyWlLk6GJQsqaUBKTNV-1" source="hK3kiyrO_WpDA3cr3hv8-9" target="hK3kiyrO_WpDA3cr3hv8-8">
          <mxGeometry relative="1" as="geometry" />
        </mxCell>
        <mxCell id="hK3kiyrO_WpDA3cr3hv8-9" value="Head := NewNode" style="rounded=0;whiteSpace=wrap;html=1;" vertex="1" parent="WIyWlLk6GJQsqaUBKTNV-1">
          <mxGeometry x="160" y="480" width="160" height="40" as="geometry" />
        </mxCell>
        <mxCell id="hK3kiyrO_WpDA3cr3hv8-13" value="Current := Head" style="rounded=0;whiteSpace=wrap;html=1;" vertex="1" parent="WIyWlLk6GJQsqaUBKTNV-1">
          <mxGeometry x="360" y="480" width="160" height="40" as="geometry" />
        </mxCell>
        <mxCell id="hK3kiyrO_WpDA3cr3hv8-20" style="edgeStyle=orthogonalEdgeStyle;rounded=0;orthogonalLoop=1;jettySize=auto;html=1;entryX=0.5;entryY=0;entryDx=0;entryDy=0;" edge="1" parent="WIyWlLk6GJQsqaUBKTNV-1" source="hK3kiyrO_WpDA3cr3hv8-14" target="hK3kiyrO_WpDA3cr3hv8-15">
          <mxGeometry relative="1" as="geometry" />
        </mxCell>
        <mxCell id="hK3kiyrO_WpDA3cr3hv8-14" value="Цикл 1&lt;div&gt;Nodes[Current].Next &amp;lt;&amp;gt; Head&lt;/div&gt;" style="strokeWidth=2;html=1;shape=mxgraph.flowchart.loop_limit;whiteSpace=wrap;" vertex="1" parent="WIyWlLk6GJQsqaUBKTNV-1">
          <mxGeometry x="360" y="560" width="160" height="40" as="geometry" />
        </mxCell>
        <mxCell id="hK3kiyrO_WpDA3cr3hv8-15" value="Current := Nodes[Current].Next" style="rounded=0;whiteSpace=wrap;html=1;" vertex="1" parent="WIyWlLk6GJQsqaUBKTNV-1">
          <mxGeometry x="360" y="640" width="160" height="40" as="geometry" />
        </mxCell>
        <mxCell id="hK3kiyrO_WpDA3cr3hv8-24" style="edgeStyle=orthogonalEdgeStyle;rounded=0;orthogonalLoop=1;jettySize=auto;html=1;entryX=0.5;entryY=0;entryDx=0;entryDy=0;" edge="1" parent="WIyWlLk6GJQsqaUBKTNV-1" source="hK3kiyrO_WpDA3cr3hv8-16" target="hK3kiyrO_WpDA3cr3hv8-22">
          <mxGeometry relative="1" as="geometry" />
        </mxCell>
        <mxCell id="hK3kiyrO_WpDA3cr3hv8-16" value="Цикл 1" style="strokeWidth=2;html=1;shape=mxgraph.flowchart.loop_limit;whiteSpace=wrap;direction=west;" vertex="1" parent="WIyWlLk6GJQsqaUBKTNV-1">
          <mxGeometry x="360" y="720" width="160" height="40" as="geometry" />
        </mxCell>
        <mxCell id="hK3kiyrO_WpDA3cr3hv8-17" value="" style="endArrow=none;html=1;rounded=0;exitX=1;exitY=0.5;exitDx=0;exitDy=0;" edge="1" parent="WIyWlLk6GJQsqaUBKTNV-1" source="hK3kiyrO_WpDA3cr3hv8-7">
          <mxGeometry width="50" height="50" relative="1" as="geometry">
            <mxPoint x="450" y="400" as="sourcePoint" />
            <mxPoint x="440" y="420" as="targetPoint" />
          </mxGeometry>
        </mxCell>
        <mxCell id="hK3kiyrO_WpDA3cr3hv8-18" value="" style="endArrow=classic;html=1;rounded=0;entryX=0.5;entryY=0;entryDx=0;entryDy=0;" edge="1" parent="WIyWlLk6GJQsqaUBKTNV-1" target="hK3kiyrO_WpDA3cr3hv8-13">
          <mxGeometry width="50" height="50" relative="1" as="geometry">
            <mxPoint x="440" y="420" as="sourcePoint" />
            <mxPoint x="500" y="350" as="targetPoint" />
          </mxGeometry>
        </mxCell>
        <mxCell id="hK3kiyrO_WpDA3cr3hv8-19" style="edgeStyle=orthogonalEdgeStyle;rounded=0;orthogonalLoop=1;jettySize=auto;html=1;entryX=0.5;entryY=0;entryDx=0;entryDy=0;entryPerimeter=0;" edge="1" parent="WIyWlLk6GJQsqaUBKTNV-1" source="hK3kiyrO_WpDA3cr3hv8-13" target="hK3kiyrO_WpDA3cr3hv8-14">
          <mxGeometry relative="1" as="geometry" />
        </mxCell>
        <mxCell id="hK3kiyrO_WpDA3cr3hv8-21" style="edgeStyle=orthogonalEdgeStyle;rounded=0;orthogonalLoop=1;jettySize=auto;html=1;entryX=0.5;entryY=1;entryDx=0;entryDy=0;entryPerimeter=0;" edge="1" parent="WIyWlLk6GJQsqaUBKTNV-1" source="hK3kiyrO_WpDA3cr3hv8-15" target="hK3kiyrO_WpDA3cr3hv8-16">
          <mxGeometry relative="1" as="geometry" />
        </mxCell>
        <mxCell id="hK3kiyrO_WpDA3cr3hv8-25" style="edgeStyle=orthogonalEdgeStyle;rounded=0;orthogonalLoop=1;jettySize=auto;html=1;entryX=0.5;entryY=0;entryDx=0;entryDy=0;" edge="1" parent="WIyWlLk6GJQsqaUBKTNV-1" source="hK3kiyrO_WpDA3cr3hv8-22" target="hK3kiyrO_WpDA3cr3hv8-23">
          <mxGeometry relative="1" as="geometry" />
        </mxCell>
        <mxCell id="hK3kiyrO_WpDA3cr3hv8-22" value="Nodes[Current].Next := NewNode" style="rounded=0;whiteSpace=wrap;html=1;" vertex="1" parent="WIyWlLk6GJQsqaUBKTNV-1">
          <mxGeometry x="360" y="800" width="160" height="40" as="geometry" />
        </mxCell>
        <mxCell id="hK3kiyrO_WpDA3cr3hv8-23" value="Nodes[NewNode].Next := Head" style="rounded=0;whiteSpace=wrap;html=1;" vertex="1" parent="WIyWlLk6GJQsqaUBKTNV-1">
          <mxGeometry x="360" y="880" width="160" height="40" as="geometry" />
        </mxCell>
        <mxCell id="hK3kiyrO_WpDA3cr3hv8-26" value="Вывод&lt;div&gt;&#39;Элемент &#39;, Data, &#39; добавлен в список.&#39;&lt;/div&gt;" style="shape=parallelogram;perimeter=parallelogramPerimeter;whiteSpace=wrap;html=1;fixedSize=1;" vertex="1" parent="WIyWlLk6GJQsqaUBKTNV-1">
          <mxGeometry x="160" y="960" width="160" height="40" as="geometry" />
        </mxCell>
        <mxCell id="hK3kiyrO_WpDA3cr3hv8-28" value="" style="endArrow=none;html=1;rounded=0;entryX=0.5;entryY=1;entryDx=0;entryDy=0;" edge="1" parent="WIyWlLk6GJQsqaUBKTNV-1" target="hK3kiyrO_WpDA3cr3hv8-23">
          <mxGeometry width="50" height="50" relative="1" as="geometry">
            <mxPoint x="440" y="940" as="sourcePoint" />
            <mxPoint x="500" y="750" as="targetPoint" />
          </mxGeometry>
        </mxCell>
        <mxCell id="hK3kiyrO_WpDA3cr3hv8-29" value="" style="endArrow=none;html=1;rounded=0;" edge="1" parent="WIyWlLk6GJQsqaUBKTNV-1">
          <mxGeometry width="50" height="50" relative="1" as="geometry">
            <mxPoint x="240" y="940" as="sourcePoint" />
            <mxPoint x="440" y="940" as="targetPoint" />
          </mxGeometry>
        </mxCell>
        <mxCell id="hK3kiyrO_WpDA3cr3hv8-30" value="AddElement&lt;div&gt;Конец&lt;/div&gt;" style="strokeWidth=2;html=1;shape=mxgraph.flowchart.terminator;whiteSpace=wrap;" vertex="1" parent="WIyWlLk6GJQsqaUBKTNV-1">
          <mxGeometry x="160" y="1040" width="160" height="40" as="geometry" />
        </mxCell>
        <mxCell id="hK3kiyrO_WpDA3cr3hv8-31" style="edgeStyle=orthogonalEdgeStyle;rounded=0;orthogonalLoop=1;jettySize=auto;html=1;entryX=0.5;entryY=0;entryDx=0;entryDy=0;entryPerimeter=0;" edge="1" parent="WIyWlLk6GJQsqaUBKTNV-1" source="hK3kiyrO_WpDA3cr3hv8-26" target="hK3kiyrO_WpDA3cr3hv8-30">
          <mxGeometry relative="1" as="geometry" />
        </mxCell>
        <mxCell id="hK3kiyrO_WpDA3cr3hv8-32" value="Да" style="text;html=1;align=center;verticalAlign=middle;whiteSpace=wrap;rounded=0;" vertex="1" parent="WIyWlLk6GJQsqaUBKTNV-1">
          <mxGeometry x="230" y="440" width="60" height="30" as="geometry" />
        </mxCell>
        <mxCell id="hK3kiyrO_WpDA3cr3hv8-33" value="Нет" style="text;html=1;align=center;verticalAlign=middle;whiteSpace=wrap;rounded=0;" vertex="1" parent="WIyWlLk6GJQsqaUBKTNV-1">
          <mxGeometry x="310" y="390" width="60" height="30" as="geometry" />
        </mxCell>
      </root>
    </mxGraphModel>
  </diagram>
</mxfile>
